<svg width="800" height="800" viewBox="0 0 800 800" fill="none" xmlns="http://www.w3.org/2000/svg">
<rect width="800" height="800" fill="#1E1E1E"/>
<rect width="800" height="800" fill="white"/>
<path d="M285.504 385.896C285.504 393.32 282.944 399.507 277.824 404.456C272.789 409.32 265.067 411.752 254.656 411.752H237.504V449H225.856V359.784H254.656C264.725 359.784 272.363 362.216 277.568 367.08C282.859 371.944 285.504 378.216 285.504 385.896ZM254.656 402.152C261.141 402.152 265.92 400.744 268.992 397.928C272.064 395.112 273.6 391.101 273.6 385.896C273.6 374.888 267.285 369.384 254.656 369.384H237.504V402.152H254.656ZM295.629 413.672C295.629 406.504 297.08 400.232 299.981 394.856C302.882 389.395 306.85 385.171 311.885 382.184C317.005 379.197 322.68 377.704 328.909 377.704C335.053 377.704 340.386 379.027 344.909 381.672C349.432 384.317 352.802 387.645 355.021 391.656V378.856H366.797V449H355.021V435.944C352.717 440.04 349.261 443.453 344.653 446.184C340.13 448.829 334.84 450.152 328.781 450.152C322.552 450.152 316.92 448.616 311.885 445.544C306.85 442.472 302.882 438.163 299.981 432.616C297.08 427.069 295.629 420.755 295.629 413.672ZM355.021 413.8C355.021 408.509 353.954 403.901 351.821 399.976C349.688 396.051 346.786 393.064 343.117 391.016C339.533 388.883 335.565 387.816 331.213 387.816C326.861 387.816 322.893 388.84 319.309 390.888C315.725 392.936 312.866 395.923 310.733 399.848C308.6 403.773 307.533 408.381 307.533 413.672C307.533 419.048 308.6 423.741 310.733 427.752C312.866 431.677 315.725 434.707 319.309 436.84C322.893 438.888 326.861 439.912 331.213 439.912C335.565 439.912 339.533 438.888 343.117 436.84C346.786 434.707 349.688 431.677 351.821 427.752C353.954 423.741 355.021 419.091 355.021 413.8ZM392.497 367.464C390.278 367.464 388.401 366.696 386.865 365.16C385.329 363.624 384.561 361.747 384.561 359.528C384.561 357.309 385.329 355.432 386.865 353.896C388.401 352.36 390.278 351.592 392.497 351.592C394.63 351.592 396.422 352.36 397.873 353.896C399.409 355.432 400.177 357.309 400.177 359.528C400.177 361.747 399.409 363.624 397.873 365.16C396.422 366.696 394.63 367.464 392.497 367.464ZM398.129 378.856V449H386.481V378.856H398.129ZM442.813 450.152C437.437 450.152 432.616 449.256 428.349 447.464C424.082 445.587 420.712 443.027 418.237 439.784C415.762 436.456 414.397 432.659 414.141 428.392H426.173C426.514 431.891 428.136 434.749 431.037 436.968C434.024 439.187 437.906 440.296 442.685 440.296C447.122 440.296 450.621 439.315 453.181 437.352C455.741 435.389 457.021 432.915 457.021 429.928C457.021 426.856 455.656 424.595 452.925 423.144C450.194 421.608 445.97 420.115 440.253 418.664C435.048 417.299 430.781 415.933 427.453 414.568C424.21 413.117 421.394 411.027 419.005 408.296C416.701 405.48 415.549 401.811 415.549 397.288C415.549 393.704 416.616 390.419 418.749 387.432C420.882 384.445 423.912 382.099 427.837 380.392C431.762 378.6 436.242 377.704 441.277 377.704C449.042 377.704 455.314 379.667 460.093 383.592C464.872 387.517 467.432 392.893 467.773 399.72H456.125C455.869 396.051 454.376 393.107 451.645 390.888C449 388.669 445.416 387.56 440.893 387.56C436.712 387.56 433.384 388.456 430.909 390.248C428.434 392.04 427.197 394.387 427.197 397.288C427.197 399.592 427.922 401.512 429.373 403.048C430.909 404.499 432.786 405.693 435.005 406.632C437.309 407.485 440.466 408.467 444.477 409.576C449.512 410.941 453.608 412.307 456.765 413.672C459.922 414.952 462.61 416.915 464.829 419.56C467.133 422.205 468.328 425.661 468.413 429.928C468.413 433.768 467.346 437.224 465.213 440.296C463.08 443.368 460.05 445.8 456.125 447.592C452.285 449.299 447.848 450.152 442.813 450.152ZM480.504 413.672C480.504 406.504 481.955 400.232 484.856 394.856C487.757 389.395 491.725 385.171 496.76 382.184C501.88 379.197 507.555 377.704 513.784 377.704C519.928 377.704 525.261 379.027 529.784 381.672C534.307 384.317 537.677 387.645 539.896 391.656V378.856H551.672V449H539.896V435.944C537.592 440.04 534.136 443.453 529.528 446.184C525.005 448.829 519.715 450.152 513.656 450.152C507.427 450.152 501.795 448.616 496.76 445.544C491.725 442.472 487.757 438.163 484.856 432.616C481.955 427.069 480.504 420.755 480.504 413.672ZM539.896 413.8C539.896 408.509 538.829 403.901 536.696 399.976C534.563 396.051 531.661 393.064 527.992 391.016C524.408 388.883 520.44 387.816 516.088 387.816C511.736 387.816 507.768 388.84 504.184 390.888C500.6 392.936 497.741 395.923 495.608 399.848C493.475 403.773 492.408 408.381 492.408 413.672C492.408 419.048 493.475 423.741 495.608 427.752C497.741 431.677 500.6 434.707 504.184 436.84C507.768 438.888 511.736 439.912 516.088 439.912C520.44 439.912 524.408 438.888 527.992 436.84C531.661 434.707 534.563 431.677 536.696 427.752C538.829 423.741 539.896 419.091 539.896 413.8Z" fill="#EA3151"/>
<path d="M507.016 398.92H514.376L529.864 413.576L514.376 428.296H507.016L522.504 413.576L507.016 398.92Z" fill="#2BC016"/>
</svg>
